<svg xmlns="http://www.w3.org/2000/svg" width="108.928" height="108.967" viewBox="0 0 108.928 108.967">
  <g id="Group_70495" data-name="Group 70495" transform="translate(-1168 -428)">
    <path id="Path_43766" data-name="Path 43766" d="M380.514,116.89v10.186c-.01,7.162-.068,14.334.019,21.5a3.6,3.6,0,0,1-1.754,3.392c-2.665,1.832-5.224,3.819-7.821,5.728-8.829-11.63-9.227-33.718,7.027-47.384,16.864-14.179,40.891-10.787,53.1,2.549-1.134.9-2.229,1.822-3.373,2.675-7.5,5.583-15.042,11.126-22.515,16.767-1.4,1.056-2.355,1.144-3.8.039-6.067-4.642-12.241-9.159-18.386-13.714-.63-.475-1.289-.9-2.5-1.735" transform="translate(819.102 344.286)"/>
    <path id="Path_43767" data-name="Path 43767" d="M415.216,139.544V163.6c3.906-2.917,7.414-5.466,10.8-8.17.465-.368.446-1.493.446-2.268.039-6.765,0-13.52.068-20.276a3.327,3.327,0,0,1,.824-2.326c3.45-2.714,7.017-5.272,10.545-7.88,5.883,8.325,7.511,28.485-6.8,42.286-15.333,14.78-38.768,13.84-52.5,1.832,3.935-2.937,7.783-5.9,11.747-8.723a4.079,4.079,0,0,0,1.948-3.828c-.116-4.72-.039-9.44-.039-14.771,2.772,2.064,5.195,3.867,7.618,5.66,3.877,2.869,3.877,2.859,7.821-.048,2.336-1.735,4.691-3.46,7.531-5.544" transform="translate(818.68 343.623)"/>
    <path id="Path_43768" data-name="Path 43768" d="M457.318,139.9v-4.5h-4.032a50.83,50.83,0,0,0-.582-5.747l3.935-.814-.911-4.4-3.925.814a48.321,48.321,0,0,0-1.7-5.389l3.693-1.58-1.764-4.129-3.683,1.58c-.669-1.386-1.405-2.733-2.19-4.051l3.353-2.219-2.481-3.751-3.353,2.219a51.7,51.7,0,0,0-3.567-4.381l2.849-2.84-3.179-3.179-2.84,2.84a52.229,52.229,0,0,0-4.487-3.644l2.219-3.373-3.751-2.471-2.21,3.353a49.915,49.915,0,0,0-5-2.607l1.493-3.731-4.168-1.667-1.493,3.731c-1.444-.5-2.917-.95-4.42-1.328l.8-3.935-4.4-.9-.8,3.945a51.11,51.11,0,0,0-5.621-.562V83.16h-4.5v4.022a51.239,51.239,0,0,0-5.757.582l-.814-3.935-4.4.911.814,3.925a50.438,50.438,0,0,0-5.389,1.7l-1.58-3.693-4.129,1.774,1.58,3.683c-1.386.669-2.733,1.405-4.051,2.19l-2.219-3.353-3.751,2.481,2.219,3.353a51.565,51.565,0,0,0-4.371,3.567l-2.84-2.84-3.179,3.179,2.849,2.84a54.249,54.249,0,0,0-3.654,4.487l-3.363-2.21-2.471,3.751,3.363,2.21a52.091,52.091,0,0,0-2.617,5l-3.731-1.493-1.667,4.168,3.731,1.493c-.5,1.444-.95,2.917-1.328,4.41l-3.935-.795-.892,4.4,3.935.795a48.643,48.643,0,0,0-.552,5.621H348.39v4.5h4.022a51.23,51.23,0,0,0,.582,5.757l-3.935.8.911,4.4,3.935-.8a48.32,48.32,0,0,0,1.7,5.389L351.908,157l1.764,4.138,3.683-1.58c.669,1.386,1.405,2.743,2.19,4.051l-3.353,2.219,2.481,3.751,3.353-2.219a51.557,51.557,0,0,0,3.567,4.371l-2.849,2.84,3.179,3.179,2.84-2.849a52.339,52.339,0,0,0,4.487,3.654l-2.219,3.363,3.751,2.471,2.21-3.363A51.13,51.13,0,0,0,382,183.647l-1.493,3.731,4.168,1.677,1.493-3.731c1.444.5,2.917.95,4.42,1.328l-.8,3.935,4.4.892.8-3.935a51.109,51.109,0,0,0,5.621.552v4.032h4.5V188.1a51.234,51.234,0,0,0,5.757-.582l.814,3.935,4.4-.911-.814-3.935a48.324,48.324,0,0,0,5.389-1.7l1.58,3.693,4.129-1.774-1.58-3.683q2.079-1,4.051-2.2l2.219,3.353,3.751-2.481-2.219-3.353a51.557,51.557,0,0,0,4.371-3.567l2.84,2.849,3.179-3.179-2.849-2.84a54.241,54.241,0,0,0,3.654-4.487l3.363,2.219,2.471-3.76-3.363-2.21a51.132,51.132,0,0,0,2.617-5.011l3.731,1.493,1.667-4.168-3.731-1.493c.5-1.444.95-2.917,1.328-4.42l3.935.8.9-4.4-3.935-.8a48.862,48.862,0,0,0,.552-5.621h4ZM402.83,179.886a42.238,42.238,0,1,1,42.238-42.238,42.236,42.236,0,0,1-42.238,42.238" transform="translate(819.61 344.84)" fill="#00aeef"/>
  </g>
</svg>
