<svg xmlns="http://www.w3.org/2000/svg" width="79.877" height="79.877" viewBox="0 0 79.877 79.877">
  <g id="Group_70487" data-name="Group 70487" transform="translate(-148 -425)">
    <path id="Path_1" data-name="Path 1" d="M243.338,19.72a2.34,2.34,0,0,0,2.34-2.34V2.34a2.34,2.34,0,0,0-4.68,0V17.379A2.34,2.34,0,0,0,243.338,19.72Z" transform="translate(-55.4 425)" fill="#27bbf3"/>
    <path id="Path_2" data-name="Path 2" d="M243.338,405.32a2.34,2.34,0,0,0,2.34-2.34V387.941a2.34,2.34,0,0,0-4.68,0V402.98A2.34,2.34,0,0,0,243.338,405.32Z" transform="translate(-55.4 99.556)" fill="#27bbf3" opacity="0.35"/>
    <path id="Path_3" data-name="Path 3" d="M315.635,49.989a2.339,2.339,0,0,0,2.029-1.171l7.519-13.024a2.34,2.34,0,0,0-4.053-2.34l-7.52,13.024a2.341,2.341,0,0,0,2.024,3.511Z" transform="translate(-116.419 397.753)" fill="#27bbf3" opacity="0.1"/>
    <path id="Path_4" data-name="Path 4" d="M122.834,383.932a2.339,2.339,0,0,0,2.029-1.171l7.519-13.024a2.34,2.34,0,1,0-4.053-2.34l-7.52,13.024a2.341,2.341,0,0,0,2.024,3.511Z" transform="translate(46.303 115.909)" fill="#27bbf3" opacity="0.45"/>
    <path id="Path_5" data-name="Path 5" d="M368.564,132.7a2.328,2.328,0,0,0,1.168-.314l13.025-7.52a2.34,2.34,0,1,0-2.34-4.053l-13.025,7.52a2.34,2.34,0,0,0,1.172,4.367Z" transform="translate(-161.087 323.302)" fill="#27bbf3" opacity="0.15"/>
    <path id="Path_6" data-name="Path 6" d="M34.627,325.5a2.327,2.327,0,0,0,1.168-.314l13.024-7.519a2.34,2.34,0,1,0-2.34-4.053l-13.024,7.519a2.34,2.34,0,0,0,1.172,4.367Z" transform="translate(120.752 160.579)" fill="#27bbf3" opacity="0.55"/>
    <path id="Path_7" data-name="Path 7" d="M387.938,245.682h15.04a2.34,2.34,0,1,0,0-4.68h-15.04a2.34,2.34,0,0,0,0,4.68Z" transform="translate(-177.441 221.597)" fill="#27bbf3" opacity="0.2"/>
    <path id="Path_8" data-name="Path 8" d="M2.34,245.682H17.379a2.34,2.34,0,1,0,0-4.68H2.34a2.34,2.34,0,1,0,0,4.68Z" transform="translate(148 221.597)" fill="#27bbf3" opacity="0.65"/>
    <path id="Path_9" data-name="Path 9" d="M381.585,325.5a2.34,2.34,0,0,0,1.172-4.367l-13.025-7.52a2.34,2.34,0,1,0-2.34,4.053l13.025,7.52A2.328,2.328,0,0,0,381.585,325.5Z" transform="translate(-161.088 160.578)" fill="#27bbf3" opacity="0.25"/>
    <path id="Path_10" data-name="Path 10" d="M47.648,132.7a2.34,2.34,0,0,0,1.172-4.367L35.8,120.813a2.34,2.34,0,1,0-2.34,4.053l13.024,7.52A2.327,2.327,0,0,0,47.648,132.7Z" transform="translate(120.751 323.3)" fill="#27bbf3" opacity="0.75"/>
    <path id="Path_11" data-name="Path 11" d="M323.159,383.932a2.341,2.341,0,0,0,2.024-3.511L317.664,367.4a2.34,2.34,0,1,0-4.053,2.34l7.52,13.024A2.34,2.34,0,0,0,323.159,383.932Z" transform="translate(-116.419 115.908)" fill="#27bbf3" opacity="0.25"/>
    <path id="Path_12" data-name="Path 12" d="M130.358,49.991a2.341,2.341,0,0,0,2.024-3.511l-7.52-13.024a2.34,2.34,0,0,0-4.053,2.34l7.519,13.024A2.339,2.339,0,0,0,130.358,49.991Z" transform="translate(46.303 397.751)" fill="#27bbf3" opacity="0.9"/>
  </g>
</svg>
