<svg xmlns="http://www.w3.org/2000/svg" width="140" height="140" viewBox="0 0 140 140">
  <g id="Group_70139" data-name="Group 70139" transform="translate(-115.676 -308.501)">
    <circle id="Oval_Copy_2" data-name="Oval Copy 2" cx="70" cy="70" r="70" transform="translate(115.676 308.501)" fill="rgba(0,173,239,0.1)"/>
    <circle id="Oval_Copy" data-name="Oval Copy" cx="60" cy="60" r="60" transform="translate(125.676 318.501)" fill="rgba(0,173,239,0.1)"/>
    <circle id="Oval" cx="50" cy="50" r="50" transform="translate(135.676 328.501)" fill="#00adef"/>
    <g id="Icons_16px_Send" data-name="Icons/16px/Send" transform="translate(172.5 364.5)">
      <path id="icon-send" d="M27.487.512A1.75,1.75,0,0,0,25.662.1l-24.5,8.75a1.748,1.748,0,0,0-.194,3.211l8.026,4.011L19.25,8.749,11.922,19.008l4.011,8.025A1.756,1.756,0,0,0,17.5,28c.037,0,.072,0,.107,0a1.749,1.749,0,0,0,1.543-1.158l8.75-24.5A1.754,1.754,0,0,0,27.487.512Z" transform="translate(1 3.001)" fill="#fff"/>
    </g>
    <path id="Path_52" data-name="Path 52" d="M-1624.8-7553.123s-20.67,9.163-10.912,22.233,1.012,21.376,1.012,21.376" transform="translate(1809 7938)" fill="none" stroke="#fff" stroke-width="1" stroke-dasharray="1"/>
  </g>
</svg>
