<svg xmlns="http://www.w3.org/2000/svg" width="16" height="20" viewBox="0 0 16 20">
  <g id="Group_70482" data-name="Group 70482" transform="translate(-229 -505)">
    <g id="_Icon_-_L" data-name="💚 Icon - L" transform="translate(225 503)">
      <path id="lock-alt" d="M13,20H3a3,3,0,0,1-3-3V10A3,3,0,0,1,3,7V5A5,5,0,1,1,13,5V7a3,3,0,0,1,3,3v7A3,3,0,0,1,13,20ZM3,9a1,1,0,0,0-1,1v7a1,1,0,0,0,1,1H13a1,1,0,0,0,1-1V10a1,1,0,0,0-1-1ZM8,2A3,3,0,0,0,5,5V7h6V5A3,3,0,0,0,8,2ZM8,16a1,1,0,0,1-1-1V12a1,1,0,1,1,2,0v3A1,1,0,0,1,8,16Z" transform="translate(4 2)" fill="#00adef"/>
    </g>
  </g>
</svg>
