<svg xmlns="http://www.w3.org/2000/svg" width="54.123" height="55.896" viewBox="0 0 54.123 55.896">
  <g id="Group_70494" data-name="Group 70494" transform="translate(-248.642 -141.987)">
    <path id="Path_43775" data-name="Path 43775" d="M301,181.518a10.429,10.429,0,0,0-11.258-4.188l-7.728-7.728-1.631,1.631,5.189,5.189A1.894,1.894,0,1,1,282.9,179.1l-5.189-5.2-1.631,1.64,7.061,7.061a10.44,10.44,0,0,0,10.053,15.252l-4.726-6.885a2.072,2.072,0,0,1,.537-2.882l5.217-3.586a2.09,2.09,0,0,1,2.891.528l4.716,6.885A10.421,10.421,0,0,0,301,181.518Zm-32.764-21.645a1.865,1.865,0,0,1,1.334.556l5.791,5.791,1.631-1.631-7.515-7.515a10.441,10.441,0,0,0-10.257-15.048l4.79,6.829a2.077,2.077,0,0,1-.51,2.891l-5.18,3.641a2.069,2.069,0,0,1-2.891-.51l-4.8-6.838A10.449,10.449,0,0,0,263,162.477l8.052,8.052,1.64-1.631-5.791-5.791a1.895,1.895,0,0,1,1.334-3.234Z" transform="translate(-0.075)"/>
    <path id="Path_43776" data-name="Path 43776" d="M275.615,181.83a.906.906,0,0,1-1.279,0l-5.847-5.847a.906.906,0,0,1,0-1.279l.315-.315a.906.906,0,0,1,1.279,0l5.847,5.847a.906.906,0,0,1,0,1.279Z" transform="translate(-1.438 -2.359)"/>
    <path id="Path_43777" data-name="Path 43777" d="M271.582,183.379l-12.768,13.927-1.575,1.714a4.858,4.858,0,0,1-1.659,1.1,4.532,4.532,0,0,1-1.418.343,4.08,4.08,0,0,1-.482.028,4.968,4.968,0,0,1-3.558-1.464,5.028,5.028,0,0,1,0-7.125l1.7-1.566,13.927-12.778Z" transform="translate(0 -2.612)"/>
    <path id="Path_43778" data-name="Path 43778" d="M299.55,151.554l-2.428,3.818-2.15.917L275.691,175.58,273.3,173.19,292.591,153.9l.917-2.14,3.818-2.428.2.2-2.817,2.354a1.631,1.631,0,0,0,.222,2.048c.51.5,1.594.8,2.094.3l2.307-2.891Z" transform="translate(-1.81 -0.539)"/>
  </g>
</svg>
