<svg xmlns="http://www.w3.org/2000/svg" width="35.467" height="56.17" viewBox="0 0 35.467 56.17">
  <g id="Group_70492" data-name="Group 70492" transform="translate(-257.01 -350.33)">
    <path id="Path_43779" data-name="Path 43779" d="M285.2,389.472c-1.184,2.369-4.7,4.1-8.858,4.1-4.29,0-7.911-1.853-8.96-4.349l1.921-.651V385.14a10.908,10.908,0,0,0,7.234,2.868,10.65,10.65,0,0,0,6.853-2.555v3.283Z" transform="translate(-1.596 -5.359)"/>
    <path id="Path_43780" data-name="Path 43780" d="M288.722,367.5l-1.413-.4-.068-.025a5.562,5.562,0,0,0-1.058-.228l-.888,1.337-.034.059-.042.042-.135.211c-.068.11-.135.212-.195.3a2.132,2.132,0,0,1-2.1,1.168h-.355l-.178-.093a25.557,25.557,0,0,0-6.5-.533c-3.748,0-6.075.313-6.481.533l-.178.093h-.355a2.124,2.124,0,0,1-2.124-1.227c-.059-.085-.11-.178-.178-.271l-.127-.195-.042-.034-.042-.076-.88-1.328a6.815,6.815,0,0,0-1.066.22l-.068.034-1.371.271a6.1,6.1,0,0,0-.3,3.249,4.909,4.909,0,0,0,1.827,3.46,1.158,1.158,0,0,0,.271.135,15.2,15.2,0,0,0,3.875,7.022,10.233,10.233,0,0,0,7.234,3.164,10.039,10.039,0,0,0,6.853-2.809,14.919,14.919,0,0,0,4.264-7.386c.956-.355,1.811-1.777,2.09-3.579A6.085,6.085,0,0,0,288.722,367.5Zm-.525,3.012c-.254,1.624-1,2.733-1.582,2.944l-.389.152-.1.4a14.258,14.258,0,0,1-4.027,7.005,9.014,9.014,0,0,1-12.987-.338,14.328,14.328,0,0,1-3.663-6.658l-.11-.415-.415-.135a.374.374,0,0,1-.085-.051,4.222,4.222,0,0,1-1.472-2.919,5.941,5.941,0,0,1,.1-2.445l1.024-.195.076-.042a3.124,3.124,0,0,1,.448-.1l.558.855.093.186.076.059.22.347a2.93,2.93,0,0,0,2.8,1.6h.558l.347-.186a27.945,27.945,0,0,1,6.1-.432,28.27,28.27,0,0,1,6.159.448l.3.178h.558a2.9,2.9,0,0,0,2.75-1.514l.3-.465.025-.034.093-.152.584-.888c.245.051.372.085.423.1l.085.034,1.041.3A5.894,5.894,0,0,1,288.2,370.512Z" transform="translate(-0.839 -2.542)"/>
    <path id="Path_43781" data-name="Path 43781" d="M257.044,408.432h6.785V402.62H285.8v5.812h6.675v6.117H257.01v-6.117Z" transform="translate(0 -8.049)"/>
    <path id="Path_43782" data-name="Path 43782" d="M257.99,391.1v14.527h5.2V389.48Zm2.6,13.706a1.7,1.7,0,1,1,1.7-1.7A1.7,1.7,0,0,1,260.587,404.8Z" transform="translate(-0.151 -6.027)"/>
    <path id="Path_43783" data-name="Path 43783" d="M291.98,389.48v16.143h5.2V391.1Zm2.6,15.322a1.7,1.7,0,1,1,1.692-1.7A1.693,1.693,0,0,1,294.577,404.8Z" transform="translate(-5.383 -6.027)"/>
    <path id="Path_43784" data-name="Path 43784" d="M288.093,359.231v4.839c0-.22-.694-.423-1.912-.584l-.178-.025-1.168,1.768c-.008.008-.008.017-.017.025-.745,1.134-.821,1.4-1.811,1.4h-.161c-.668-.355-3.494-.626-6.87-.626s-6.176.262-6.853.626h-.161c-1,0-1.074-.271-1.811-1.4-.008-.008-.008-.017-.017-.025l-1.176-1.768-.178.025c-1.21.161-1.912.364-1.912.584v-4.839c0-5.3,5.415-8.9,12.1-8.9S288.093,353.926,288.093,359.231Z" transform="translate(-1.056)"/>
  </g>
</svg>
