<svg xmlns="http://www.w3.org/2000/svg" width="56" height="44.511" viewBox="0 0 56 44.511">
  <g id="Tow_Truck" data-name="Tow Truck" transform="translate(-4 -10.489)">
    <path id="Path_44893" data-name="Path 44893" d="M19.63,27H17v4h7.3Z"/>
    <circle id="Ellipse_1334" data-name="Ellipse 1334" cx="1" cy="1" r="1" transform="translate(7 37)"/>
    <circle id="Ellipse_1335" data-name="Ellipse 1335" cx="1" cy="1" r="1" transform="translate(25 37)"/>
    <path id="Path_44894" data-name="Path 44894" d="M4,37H5.184a2.982,2.982,0,0,1,5.632,0H23.184a2.982,2.982,0,0,1,5.632,0H30V34.413L28.594,33H4Z"/>
    <path id="Path_44895" data-name="Path 44895" d="M15,27H11.236a.994.994,0,0,0-.894.553L8.618,31H15Z"/>
    <path id="Path_44896" data-name="Path 44896" d="M56,40h4v2H56Z"/>
    <path id="Path_44897" data-name="Path 44897" d="M44,25v9H59.267l-4.58-8.475a1,1,0,0,0-.88-.525Z"/>
    <path id="Path_44898" data-name="Path 44898" d="M59,50a1,1,0,0,0,1-1V48H57V46h3V44H56a2,2,0,0,1-2-2V40a2,2,0,0,1,2-2h4V36.108c0-.037-.013-.072-.015-.108H43a1,1,0,0,1-1-1V25H40V50h3.09a5.993,5.993,0,0,1,11.82,0ZM46,40H42V38h4Z"/>
    <path id="Path_44899" data-name="Path 44899" d="M49,47a4,4,0,1,0,4,4A4,4,0,0,0,49,47Zm1,5H48V50h2Z"/>
    <path id="Path_44900" data-name="Path 44900" d="M38,50V43H4v7H6.09a5.993,5.993,0,0,1,11.82,0Z"/>
    <path id="Path_44901" data-name="Path 44901" d="M38,24.218,8.544,10.489,7.7,12.306,38,26.431Z"/>
    <path id="Path_44902" data-name="Path 44902" d="M38,28.637,36,27.7V41h2Z"/>
    <path id="Path_44903" data-name="Path 44903" d="M12,47a4,4,0,1,0,4,4A4,4,0,0,0,12,47Zm1,5H11V50h2Z"/>
    <path id="Path_44904" data-name="Path 44904" d="M7,24a3,3,0,0,1-3-3H6a1,1,0,1,0,1-1,1,1,0,0,1-1-1V14.083H8v4.088A3,3,0,0,1,7,24Z"/>
  </g>
</svg>
