<svg xmlns="http://www.w3.org/2000/svg" width="68.536" height="54.131" viewBox="0 0 68.536 54.131">
  <g id="Group_70493" data-name="Group 70493" transform="translate(-67 -431)">
    <path id="Path_43848" data-name="Path 43848" d="M94.47,75.8c-.165.189-.106.342.141.471.035.035.106.047.165.082a34.645,34.645,0,0,1,5.161-3.888c.412-.236.8-.46,1.19-.636a.012.012,0,0,1,.012-.012,4.9,4.9,0,0,1,1.685-.483c.483-.035,1.39.141,1.39.9a28.471,28.471,0,0,1-.2,2.863c-.224,2.1-2.05.13-2.451.412-.53.389,1.178,1,1.473,1.426h.012c2,0,4.289-.035,6.763-.094v24.39H90v-.035a13.118,13.118,0,1,0-25.91-2.9,11.762,11.762,0,0,0,.342,2.9v.012h-.012s.012,0,.012.024H58c-1.2,0-1.555,0-2.309-.059-.342,0-.754-.035-1.355-.071-.306-.012-.648-.035-1.06-.047-.189-.024-.424-.024-.66-.035a5.1,5.1,0,0,1-1.343-.236c-.071-.024-.118-.035-.177-.059a.892.892,0,0,1-.212-.106,1.079,1.079,0,0,1-.377-.212,1.337,1.337,0,0,1-.424-.471,1.608,1.608,0,0,1-.165-.389,2.248,2.248,0,0,1,.035-1.19.72.72,0,0,1,.035-.153.374.374,0,0,1,.035-.106,1.538,1.538,0,0,1,.094-.247c.047-.106.082-.2.118-.271A.166.166,0,0,0,50.3,97.5v-.012a.333.333,0,0,1,.059-.071v-.024a2.138,2.138,0,0,1,.118-.236c.035-.106.106-.224.165-.353s.106-.271.141-.389a1.943,1.943,0,0,0,.094-.542c0-1.013,0-1.944.012-2.769,0-.283.024-.554.024-.825v-.259c0-.189,0-.33.012-.495v-.071c0-.212.024-.424.024-.624.012-.224.012-.448.035-.66a4.8,4.8,0,0,1,.035-.589,4.416,4.416,0,0,1,.035-.566c.012-.165.035-.342.035-.507.035-.283.047-.518.082-.778a25.581,25.581,0,0,0,5.8-.2c2.474-.589,3.181-2.6,3.77-4.843-2.368-.177-4.819-.153-7.235-.13.212-.283.424-.589.672-.954.165-.224-.047-.082.212-.212l.106-.071,6.033-.342.271-.012.365-.024h.024l26.546-1.5,1.7-.106-1.708.094L67.3,60.762l-.566-.53L60.783,54.8c4.725-.165,22.646,16.885,28.667,20.773h-.024v.082l.024-.082a7.978,7.978,0,0,0,1.072-.33c1.7-.707,12.03-6.174,19.288-9.485V67.4C103.731,70.047,96.19,73.747,94.47,75.8Z" transform="translate(25.725 376.201)"/>
    <path id="Path_43849" data-name="Path 43849" d="M83.464,72.43l-.024.082V72.43Z" transform="translate(31.712 379.344)" fill="#4d4d4d"/>
    <path id="Path_43850" data-name="Path 43850" d="M52.529,82.44c-.46,0-.919-.012-1.379-.024a8.812,8.812,0,0,1,1.7-3.2c.707,0,1.426-.012,2.133-.012,1.379,0,2.533.024,3.57.071-.577,1.65-1.308,2.557-2.781,2.9A15.313,15.313,0,0,1,52.529,82.44Z" transform="translate(25.956 380.551)"/>
    <path id="Path_43851" data-name="Path 43851" d="M74.72,82.68a10.64,10.64,0,1,0,10.64,10.64A10.651,10.651,0,0,0,74.72,82.68Zm6.386,17.108-.731.66-.071.035c-.118.106-.33.247-.53.389l-.825.483a9.008,9.008,0,0,1-8.436.024,6.665,6.665,0,0,1-.837-.483q-.318-.212-.636-.46l-.683-.624a8.868,8.868,0,0,1-2.192-3.393,9.1,9.1,0,0,1-.554-3.1,8.646,8.646,0,0,1,.141-1.544,4.7,4.7,0,0,1,.224-.966,6.7,6.7,0,0,1,.212-.707,7.729,7.729,0,0,1,.412-.9,9.093,9.093,0,0,1,6.775-4.89,6.546,6.546,0,0,1,.954-.094c.118-.012.236-.012.377-.012.165,0,.295,0,.448.012a6.576,6.576,0,0,1,.919.094,9.061,9.061,0,0,1,6.763,4.913,5.826,5.826,0,0,1,.4.884c.082.236.177.495.247.754a7.014,7.014,0,0,1,.2.919,9.047,9.047,0,0,1,.13,1.532,8.89,8.89,0,0,1-.542,3.1A9.164,9.164,0,0,1,81.106,99.788Z" transform="translate(28.261 381.172)"/>
    <path id="Path_43852" data-name="Path 43852" d="M82.788,91.561a7.2,7.2,0,0,0-.2-.872,6.832,6.832,0,0,0-.224-.7,5.749,5.749,0,0,0-.377-.825,8.5,8.5,0,0,0-6.327-4.6,7.465,7.465,0,0,0-.884-.082c-.13-.012-.247-.012-.389-.012-.118,0-.224,0-.353.012a7.9,7.9,0,0,0-.9.082,8.508,8.508,0,0,0-6.339,4.6,6.542,6.542,0,0,0-.377.825,5.791,5.791,0,0,0-.212.683,4.378,4.378,0,0,0-.2.884A8.154,8.154,0,0,0,65.88,93a8.565,8.565,0,0,0,2.545,6.056l.672.6a5.349,5.349,0,0,0,.589.424,6.422,6.422,0,0,0,.778.46,8.452,8.452,0,0,0,7.871-.012l.789-.46c.189-.13.389-.271.577-.424l.024-.012.613-.554.035-.035A8.43,8.43,0,0,0,82.906,93,8.257,8.257,0,0,0,82.788,91.561ZM81.7,90.254a6.19,6.19,0,0,1,.2.613c0,.024.012.024.012.035l-4.89,1.591-.9.295c0-.024-.012-.035-.012-.047a1.706,1.706,0,0,0-.2-.613c-.024-.012-.024-.024-.024-.035l.907-.283,4.89-1.591A.043.043,0,0,0,81.7,90.254ZM75.66,85.293a7.816,7.816,0,0,1,5.656,4.1L77.71,90.572l-1.461.471-.589.189V85.293ZM74.034,85.2h.024a2.889,2.889,0,0,1,.295-.012h.342a.2.2,0,0,1,.082.012v6.1h-.012l-.012-.012a3.1,3.1,0,0,0-.33-.024,1.919,1.919,0,0,0-.365.035h-.024Zm.353,7.022a.767.767,0,0,1,.778.766.772.772,0,1,1-1.544,0A.764.764,0,0,1,74.387,92.221Zm-1.249-6.928v5.938l-.577-.189-1.449-.471-3.641-1.19A7.813,7.813,0,0,1,73.138,85.293Zm-6.268,5.6c.071-.2.13-.424.212-.624.012-.012.012-.035.024-.059l4.89,1.6.943.295a.012.012,0,0,1-.012.012,1.826,1.826,0,0,0-.224.66V92.8l-.919-.306-4.913-1.6Zm1.979,7.588A7.816,7.816,0,0,1,66.587,93a6.077,6.077,0,0,1,.106-1.225l3.641,1.19,1.449.471.577.189L72,94.13l-.884,1.225-.4.542ZM70.1,99.515l-.012-.012c-.212-.141-.377-.271-.566-.4,0-.012,0-.012-.012-.024L71.818,95.9l.742-1.013.554-.766c.012.012.024.024.024.035a1.464,1.464,0,0,0,.507.377.089.089,0,0,0,.047.024l-.554.766-.424.577Zm4.289,1.284a7.671,7.671,0,0,1-3.511-.837l2.262-3.122.683-.943.212-.295.377-.495.365.507.2.283.683.943,2.25,3.111A7.48,7.48,0,0,1,74.387,100.8Zm4.854-1.7a3.946,3.946,0,0,1-.518.365l-.012.024L76.084,95.9l-.424-.589-.53-.742a.163.163,0,0,1,.047-.035,1.593,1.593,0,0,0,.495-.353c0-.012.024-.035.035-.047l.542.754.731,1.013,2.3,3.181Zm2.4-3.2a7.625,7.625,0,0,1-1.7,2.569L78.1,95.9l-.389-.542L76.8,94.13l-.353-.507.577-.189,1.461-.471L82.1,91.785A8.44,8.44,0,0,1,82.211,93,7.837,7.837,0,0,1,81.645,95.9Z" transform="translate(28.581 381.492)"/>
    <path id="Path_43857" data-name="Path 43857" d="M83.464,72.43l-.024.082V72.43Z" transform="translate(31.712 379.344)" fill="#4d4d4d"/>
    <path id="Path_43858" data-name="Path 43858" d="M65.265,61,59.9,78.731l-.754.047,5.55-18.3.153.141Z" transform="translate(27.382 377.214)"/>
    <g id="Group_65375" data-name="Group 65375" transform="translate(71.236 470.847)">
      <g id="Group_65374" data-name="Group 65374" transform="translate(0 0)">
        <g id="Group_65373" data-name="Group 65373">
          <path id="Path_43951" data-name="Path 43951" d="M129.881,294.422l-.094.46a8.587,8.587,0,0,1-.919.236c-.094-.012-1.284-.2-1.237-.342a9.258,9.258,0,0,1,.754-.99s.789-.365.872-.295.613.731.613.731v.2Z" transform="translate(-127.629 -293.482)" fill="#aaa"/>
        </g>
      </g>
    </g>
    <g id="Group_65378" data-name="Group 65378" transform="translate(69.034 473.378)">
      <g id="Group_65377" data-name="Group 65377" transform="translate(0 0)">
        <g id="Group_65376" data-name="Group 65376">
          <path id="Path_43952" data-name="Path 43952" d="M127.563,296.137l.059-.507h-1.815l-.047.424s.035.6.13.6,1.579-.059,1.579-.059Z" transform="translate(-125.76 -295.63)" fill="#aaa"/>
        </g>
      </g>
    </g>
    <g id="Group_65381" data-name="Group 65381" transform="translate(70.919 471.587)">
      <g id="Group_65380" data-name="Group 65380" transform="translate(0 0)">
        <g id="Group_65379" data-name="Group 65379">
          <path id="Path_43953" data-name="Path 43953" d="M131.837,295.854a.6.6,0,0,0-.4-.259l-.943-.071a.942.942,0,0,1-.507-.6l-.059-.2h-.035a2.946,2.946,0,0,1-2-.6l-.012-.012-.2.153-.318,1.614,1.308.389.071-.342.448.141-.071.33.848.13,1.838-.035a1.007,1.007,0,0,0,.106-.306,1.442,1.442,0,0,0-.071-.33Z" transform="translate(-127.36 -294.11)" fill="#3a3a3a"/>
        </g>
      </g>
    </g>
    <g id="Group_65384" data-name="Group 65384" transform="translate(81.995 451.203)">
      <g id="Group_65383" data-name="Group 65383" transform="translate(0 0)">
        <g id="Group_65382" data-name="Group 65382">
          <path id="Path_43954" data-name="Path 43954" d="M138.987,276.81l5.255,2.286,3.594,2.957-1.661.236-3.311-1.626a53.98,53.98,0,0,1-6.1-1A34.462,34.462,0,0,1,138.987,276.81Z" transform="translate(-136.76 -276.81)" fill="#0092c9"/>
        </g>
      </g>
    </g>
    <g id="Group_65387" data-name="Group 65387" transform="translate(69.447 451.262)">
      <g id="Group_65386" data-name="Group 65386" transform="translate(0 0)">
        <g id="Group_65385" data-name="Group 65385">
          <path id="Path_43955" data-name="Path 43955" d="M130.611,280.289l1.65,9.567a1.03,1.03,0,0,1-.012.424l-1.732,7.128-2.439-.295,1.19-7.835-3.158-9.3,3.052-3.122Z" transform="translate(-126.11 -276.86)" fill="#00adef"/>
        </g>
      </g>
    </g>
    <g id="Group_65390" data-name="Group 65390" transform="translate(84.764 450.178)">
      <g id="Group_65389" data-name="Group 65389" transform="translate(0 0)">
        <g id="Group_65388" data-name="Group 65388">
          <path id="Path_43956" data-name="Path 43956" d="M141.066,275.94l-1.873.247-.083,3.441,2.745-.719a20.691,20.691,0,0,0,.377-2.144C142.162,276.659,141.066,275.94,141.066,275.94Z" transform="translate(-139.11 -275.94)" fill="#bf8b5e"/>
        </g>
      </g>
    </g>
    <g id="Group_65393" data-name="Group 65393" transform="translate(84.269 449.978)">
      <g id="Group_65392" data-name="Group 65392" transform="translate(0 0)">
        <g id="Group_65391" data-name="Group 65391">
          <path id="Path_43957" data-name="Path 43957" d="M139.208,275.77l.86.2L139.9,278.2l-.566-.224-.648-1.744Z" transform="translate(-138.69 -275.77)" fill="#0092c9"/>
        </g>
      </g>
    </g>
    <g id="Group_65396" data-name="Group 65396" transform="translate(67 448.689)">
      <g id="Group_65395" data-name="Group 65395" transform="translate(0 0)">
        <g id="Group_65394" data-name="Group 65394">
          <path id="Path_43958" data-name="Path 43958" d="M142.375,277.214a1.822,1.822,0,0,0-.978-1.567,5.547,5.547,0,0,0-2.192-.648l-3.016-.259a17.282,17.282,0,0,0-6.539.7l-2.144.66a4.2,4.2,0,0,0-3.311,3,4.876,4.876,0,0,0,.13,2.9l.106.247a16.626,16.626,0,0,1,.919,3.558l.377,5.019-.271,8.731h3.016l1.214-8.707-.236-8.106c-.024-.236.012-1.1.236-1.178l.236.46,2.628-.742a6.482,6.482,0,0,1,2.015-.247l4.336.106a3.729,3.729,0,0,0,1.591-.318l1.6-.707.295-2Z" transform="translate(-124.034 -274.676)" fill="#00adef"/>
        </g>
      </g>
    </g>
    <g id="Group_65399" data-name="Group 65399" transform="translate(85.795 448.932)">
      <g id="Group_65398" data-name="Group 65398" transform="translate(0 0)">
        <g id="Group_65397" data-name="Group 65397">
          <path id="Path_43959" data-name="Path 43959" d="M144.362,275.869a2.273,2.273,0,0,0-3.158-.589,2.329,2.329,0,0,0-.672.73h0a.537.537,0,0,0-.153.33,2.332,2.332,0,0,0-.153.943,4.738,4.738,0,0,1-.153.884c-.236.624.012,2.062.624,2.156.8.13,2.427-.872,3.016-1.249a.509.509,0,0,1,.082-.047c.012,0,.012-.012.024-.023l.106-.071-.012-.012a2.269,2.269,0,0,0,.448-3.052Z" transform="translate(-139.985 -274.883)" fill="#e0b785"/>
        </g>
      </g>
    </g>
    <g id="Group_65402" data-name="Group 65402" transform="translate(86.19 449.978)">
      <g id="Group_65401" data-name="Group 65401" transform="translate(0 0)">
        <g id="Group_65400" data-name="Group 65400">
          <path id="Path_43960" data-name="Path 43960" d="M144.691,277.149l-.424-1.379-2.168,1.06a6.057,6.057,0,0,1-1.567,2.934,1.235,1.235,0,0,0-.212.224.554.554,0,0,0,.295.177c.8.13,2.427-.872,3.016-1.249a.51.51,0,0,1,.082-.047c.012,0,.012-.012.024-.023l.106-.071-.012-.012A2.179,2.179,0,0,0,144.691,277.149Z" transform="translate(-140.32 -275.77)" fill="#d3a778"/>
        </g>
      </g>
    </g>
    <g id="Group_65405" data-name="Group 65405" transform="translate(86.685 448.513)">
      <g id="Group_65404" data-name="Group 65404" transform="translate(0 0)">
        <g id="Group_65403" data-name="Group 65403">
          <path id="Path_43961" data-name="Path 43961" d="M140.74,275.344l2.957,3.935a3.212,3.212,0,0,0,1.426-2.58C145.194,274.908,142.472,273.611,140.74,275.344Z" transform="translate(-140.74 -274.527)" fill="#00adef"/>
        </g>
      </g>
    </g>
    <g id="Group_65408" data-name="Group 65408" transform="translate(89.654 452.958)">
      <g id="Group_65407" data-name="Group 65407" transform="translate(0 0)">
        <g id="Group_65406" data-name="Group 65406">
          <path id="Path_43962" data-name="Path 43962" d="M143.637,278.3l1.284,1.979a.555.555,0,0,1,.071.471l-.047.165-1.685-2.321Z" transform="translate(-143.26 -278.3)" fill="#00adef"/>
        </g>
      </g>
    </g>
    <g id="Group_65411" data-name="Group 65411" transform="translate(68.681 473.79)">
      <g id="Group_65410" data-name="Group 65410" transform="translate(0 0)">
        <g id="Group_65409" data-name="Group 65409">
          <path id="Path_43963" data-name="Path 43963" d="M127.71,295.98l.094.189a.825.825,0,0,0,.6.448l.943.106a.589.589,0,0,1,.365.177l.106.094a.772.772,0,0,1,.224.566v.295h-2.793v-.342h-.46v.342H125.46V296.2l.165-.212h0a2.733,2.733,0,0,0,1.979.035Z" transform="translate(-125.46 -295.98)" fill="#444"/>
        </g>
      </g>
    </g>
    <g id="Group_65414" data-name="Group 65414" transform="translate(77.329 448.705)">
      <g id="Group_65413" data-name="Group 65413" transform="translate(0 0)">
        <g id="Group_65412" data-name="Group 65412">
          <path id="Path_43964" data-name="Path 43964" d="M137.006,274.949a1.3,1.3,0,0,1,.13,1.013,13.59,13.59,0,0,0-4.23-.177s.189-.943-.106-1.1A40.317,40.317,0,0,1,137.006,274.949Z" transform="translate(-132.8 -274.69)" fill="#0092c9"/>
        </g>
      </g>
    </g>
    <g id="Group_65417" data-name="Group 65417" transform="translate(70.512 452.157)">
      <g id="Group_65416" data-name="Group 65416" transform="translate(0 0)">
        <g id="Group_65415" data-name="Group 65415">
          <path id="Path_43965" data-name="Path 43965" d="M127.316,299.017h.624l1.214-8.707-.236-8.106c-.024-.236.012-1.1.236-1.178l.236.46,2.628-.742a6.483,6.483,0,0,1,2.015-.247l4.336.106a3.729,3.729,0,0,0,1.591-.318l1.6-.707.271-1.873a.2.2,0,0,1-.024-.082s-5.667,1.19-8.354,1.4-5.7-.023-6.3.99.978,10.392.931,10.593C128.023,290.828,127.316,299.017,127.316,299.017Z" transform="translate(-127.014 -277.62)" fill="#0092c9"/>
        </g>
      </g>
    </g>
    <g id="Group_65420" data-name="Group 65420" transform="translate(91.303 456.493)">
      <g id="Group_65419" data-name="Group 65419" transform="translate(0 0)">
        <g id="Group_65418" data-name="Group 65418">
          <path id="Path_43966" data-name="Path 43966" d="M145.343,281.406l.837.094.106-.094a.453.453,0,0,1,.295-.106h.247a.555.555,0,0,1,.2.047l.424.224.589.047a.455.455,0,0,1,.377.271l.071.165a.271.271,0,0,1-.059.306l-.483.436a.707.707,0,0,1-.566.189l-.66-.047a1.058,1.058,0,0,1-.318-.082l-.436-.189a1.254,1.254,0,0,0-.412-.106l-.9-.082Z" transform="translate(-144.66 -281.3)" fill="#e0b785"/>
        </g>
      </g>
    </g>
    <g id="Group_65423" data-name="Group 65423" transform="translate(81.416 451.222)">
      <g id="Group_65422" data-name="Group 65422" transform="translate(0 0)">
        <g id="Group_65421" data-name="Group 65421">
          <path id="Path_43967" data-name="Path 43967" d="M136.647,279.011l3.122,2.757a2.312,2.312,0,0,0,1,.507l5.585,1.178a.589.589,0,0,0,.4-.071l.283-.177a.774.774,0,0,0,.33-.919h0a.707.707,0,0,0-.471-.46l-4.666-1.367a1.532,1.532,0,0,1-.931-.778l-.542-1.1-.613-.789a2.38,2.38,0,0,0-1.638-.907l-.636-.059a1.314,1.314,0,0,0-.837.212l-.295.2a1.134,1.134,0,0,0-.094,1.767Z" transform="translate(-136.268 -276.826)" fill="#00adef"/>
        </g>
      </g>
    </g>
    <g id="Group_65426" data-name="Group 65426" transform="translate(83.944 455.141)">
      <g id="Group_65425" data-name="Group 65425" transform="translate(0 0)">
        <g id="Group_65424" data-name="Group 65424">
          <path id="Path_43968" data-name="Path 43968" d="M146.386,282.789l.283-.177a.812.812,0,0,0,.33-.412c0,.012-.342.424-2.7,0a24.127,24.127,0,0,1-5.4-1.956c-.589-.247-.483.082-.483.082h0l.966.848a2.312,2.312,0,0,0,1,.507l5.585,1.178A.621.621,0,0,0,146.386,282.789Z" transform="translate(-138.414 -280.152)" fill="#0092c9"/>
        </g>
      </g>
    </g>
    <g id="Group_65429" data-name="Group 65429" transform="translate(68.245 454.183)">
      <g id="Group_65428" data-name="Group 65428" transform="translate(0 0)">
        <path id="Path_43969" data-name="Path 43969" d="M125.667,281.449c-.047,1.249.365,1.39.389,1.155s-.012-1.32-.012-1.32c.012,1.084.236,1.7.448,1.661s-.071-1.661-.071-1.661c.094,1.178.306,1.461.507,1.426s-.035-2.156-.012-1.461.047,1.237.412,1.284.106-2.91.071-3.1-1.638-.047-1.909,0-.094.306-.094.306a6.988,6.988,0,0,0-.306,2.062C125.231,282.25,125.667,281.449,125.667,281.449Z" transform="translate(-125.09 -279.339)" fill="#fff"/>
      </g>
    </g>
  </g>
</svg>
