<svg xmlns="http://www.w3.org/2000/svg" width="56" height="56" viewBox="0 0 56 56">
  <g id="Group_70495" data-name="Group 70495" transform="translate(-38 -250.54)">
    <path id="Path_43788" data-name="Path 43788" d="M66.1,250.54A28,28,0,1,0,94,278.651,28.019,28.019,0,0,0,66.1,250.54ZM82.31,295.247l-1.79,1.606c-.484.368-1.055.794-1.674,1.19a15.65,15.65,0,0,1-2.168,1.258,23.11,23.11,0,0,1-10.7,2.613h-.058a22.794,22.794,0,0,1-10.828-2.729l-2.119-1.268a15.873,15.873,0,0,1-1.51-1.1l-.019-.01-.194-.135-1.616-1.481-.106-.106a23.2,23.2,0,0,1-6.909-16.634,21.914,21.914,0,0,1,.377-3.938,17.915,17.915,0,0,1,.532-2.419c.145-.5.339-1.035.513-1.539l.106-.29a14.86,14.86,0,0,1,1.064-2.342,23.229,23.229,0,0,1,17.428-12.512,16.487,16.487,0,0,1,2.39-.2,7.391,7.391,0,0,1,.813-.039l.252-.01a7.679,7.679,0,0,1,1.064.058,20.381,20.381,0,0,1,2.361.213,23.435,23.435,0,0,1,17.389,12.686,18.77,18.77,0,0,1,.987,2.293,11.829,11.829,0,0,1,.61,1.877,15.006,15.006,0,0,1,.542,2.448,23.794,23.794,0,0,1,.329,3.88A23.161,23.161,0,0,1,82.31,295.247Z" transform="translate(0 0)"/>
    <path id="Path_43789" data-name="Path 43789" d="M89.141,275.4a14.143,14.143,0,0,0-.533-2.368,11.05,11.05,0,0,0-.592-1.835,20.067,20.067,0,0,0-.957-2.22,22.922,22.922,0,0,0-16.978-12.4,22.082,22.082,0,0,0-2.4-.217,7.768,7.768,0,0,0-.957-.049,8.457,8.457,0,0,0-1.016.049,17.17,17.17,0,0,0-2.378.2,22.768,22.768,0,0,0-17.048,12.273,14.51,14.51,0,0,0-1.016,2.22c-.207.592-.434,1.213-.612,1.825a18.187,18.187,0,0,0-.523,2.358,21.527,21.527,0,0,0-.365,3.838,22.748,22.748,0,0,0,6.758,16.258l.079.079,1.648,1.509.069.03a14.827,14.827,0,0,0,1.529,1.125l2.111,1.273a22.639,22.639,0,0,0,21.122.1,15.357,15.357,0,0,0,2.1-1.223c.552-.355,1.075-.74,1.578-1.125l1.8-1.608a22.75,22.75,0,0,0,6.906-16.239A23.638,23.638,0,0,0,89.141,275.4Zm-2.881-3.473a13.492,13.492,0,0,1,.543,1.657.059.059,0,0,0,.01.039L74,277.728a7.209,7.209,0,0,0-.6-1.825l12.815-4.124A.868.868,0,0,0,86.261,271.927Zm-1.026-2.378-14.206,3.512-.967-14.542A21.014,21.014,0,0,1,85.235,269.549Zm-12.47,7.9a1.1,1.1,0,1,1-1.1-1.1A1.091,1.091,0,0,1,72.765,277.452Zm-1.914,5.919a1.1,1.1,0,1,1-1.1-1.1A1.084,1.084,0,0,1,70.851,283.371ZM65.7,258.254a.957.957,0,0,1,.227-.03c.207-.01.4-.01.622-.01h.3a6.313,6.313,0,0,1,.779.039h.039l-.049,13.457a6.676,6.676,0,0,0-1-.069,6.54,6.54,0,0,0-.987.069Zm.917,14.4a1.09,1.09,0,1,1-1.1,1.1A1.086,1.086,0,0,1,66.618,272.657Zm0,3.473a3.034,3.034,0,1,1-3.029,3.039A3.04,3.04,0,0,1,66.618,276.13ZM63.5,282.276a1.09,1.09,0,1,1-1.1,1.1A1.093,1.093,0,0,1,63.5,282.276Zm-1.894-3.739a1.09,1.09,0,1,1,1.1-1.085A1.09,1.09,0,0,1,61.607,278.537Zm1.717-20.056-1.056,14.542v.01h-.01L48.1,269.421A20.974,20.974,0,0,1,63.323,258.48Zm-16.83,14.907a17.54,17.54,0,0,1,.552-1.677c.01-.01.02-.059.039-.079l12.8,4.222a7.363,7.363,0,0,0-.641,1.835l-12.776-4.222A.683.683,0,0,0,46.493,273.387Zm5.15,20.382a20.778,20.778,0,0,1-5.978-14.7,22.648,22.648,0,0,1,.286-3.236l.138.049,13.338,5.475Zm3.335,2.782-.059-.059a11.086,11.086,0,0,1-1.381-1.006l-.089-.069,7.932-10.862a6.68,6.68,0,0,0,1.569,1.164Zm11.572,3.561a20.562,20.562,0,0,1-9.451-2.318l9.422-11.109,9.451,11.2A20.482,20.482,0,0,1,66.549,300.113Zm13.072-4.528c-.483.355-.937.72-1.49,1.075-.01,0-.02.02-.03.039l-7.892-10.921a7.4,7.4,0,0,0,1.588-1.164l7.853,10.931A.1.1,0,0,1,79.621,295.584Zm1.825-1.667L73.81,281.378l13.5-5.406a18.137,18.137,0,0,1,.247,3.265A20.611,20.611,0,0,1,81.446,293.917Z" transform="translate(-0.623 -0.623)"/>
  </g>
</svg>
